<mxfile host="Electron" agent="Mozilla/5.0 (Windows NT 10.0; Win64; x64) AppleWebKit/537.36 (KHTML, like Gecko) draw.io/26.2.2 Chrome/134.0.6998.178 Electron/35.1.2 Safari/537.36" version="26.2.2">
  <diagram name="Seite-1" id="GrV4pbB2SSrvfmWI_e5-">
    <mxGraphModel dx="2895" dy="2404" grid="1" gridSize="10" guides="1" tooltips="1" connect="1" arrows="1" fold="1" page="1" pageScale="1" pageWidth="827" pageHeight="1169" math="0" shadow="0">
      <root>
        <mxCell id="0" />
        <mxCell id="1" parent="0" />
        <mxCell id="GSLwuLtplchv7FERaUMP-1" value="Cinemas" style="swimlane;childLayout=stackLayout;horizontal=1;startSize=50;horizontalStack=0;rounded=1;fontSize=14;fontStyle=0;strokeWidth=2;resizeParent=0;resizeLast=1;shadow=0;dashed=0;align=center;arcSize=4;whiteSpace=wrap;html=1;labelBackgroundColor=none;fillColor=#B2C9AB;strokeColor=#788AA3;fontColor=#46495D;" parent="1" vertex="1">
          <mxGeometry x="-170" y="1010" width="160" height="120" as="geometry" />
        </mxCell>
        <mxCell id="GSLwuLtplchv7FERaUMP-2" value="&lt;div&gt;Cinema ID&lt;/div&gt;Name&lt;div&gt;Adress&lt;/div&gt;" style="align=left;strokeColor=none;fillColor=none;spacingLeft=4;spacingRight=4;fontSize=12;verticalAlign=top;resizable=0;rotatable=0;part=1;html=1;whiteSpace=wrap;labelBackgroundColor=none;fontColor=#46495D;" parent="GSLwuLtplchv7FERaUMP-1" vertex="1">
          <mxGeometry y="50" width="160" height="70" as="geometry" />
        </mxCell>
        <mxCell id="36xcUVD_AX8S52_cwjdj-1" value="aditionalFee" style="ellipse;whiteSpace=wrap;html=1;align=center;labelBackgroundColor=none;fillColor=#B2C9AB;strokeColor=#788AA3;fontColor=#46495D;" vertex="1" parent="1">
          <mxGeometry x="827" y="80" width="100" height="40" as="geometry" />
        </mxCell>
        <mxCell id="36xcUVD_AX8S52_cwjdj-11" style="edgeStyle=orthogonalEdgeStyle;rounded=0;orthogonalLoop=1;jettySize=auto;html=1;strokeColor=#788AA3;fontColor=#46495D;fillColor=#B2C9AB;entryX=0.5;entryY=0;entryDx=0;entryDy=0;endArrow=none;startFill=0;" edge="1" parent="1" source="36xcUVD_AX8S52_cwjdj-3" target="36xcUVD_AX8S52_cwjdj-6">
          <mxGeometry relative="1" as="geometry" />
        </mxCell>
        <mxCell id="36xcUVD_AX8S52_cwjdj-12" style="edgeStyle=orthogonalEdgeStyle;shape=connector;rounded=0;orthogonalLoop=1;jettySize=auto;html=1;entryX=0;entryY=0.5;entryDx=0;entryDy=0;strokeColor=#788AA3;align=center;verticalAlign=middle;fontFamily=Helvetica;fontSize=11;fontColor=#46495D;labelBackgroundColor=default;startFill=0;endArrow=none;fillColor=#B2C9AB;" edge="1" parent="1" source="36xcUVD_AX8S52_cwjdj-13" target="36xcUVD_AX8S52_cwjdj-7">
          <mxGeometry relative="1" as="geometry" />
        </mxCell>
        <mxCell id="36xcUVD_AX8S52_cwjdj-3" value="Hall" style="rounded=1;arcSize=10;whiteSpace=wrap;html=1;align=center;strokeColor=#788AA3;fontColor=#46495D;fillColor=#B2C9AB;labelBackgroundColor=none;" vertex="1" parent="1">
          <mxGeometry x="280" y="100" width="100" height="40" as="geometry" />
        </mxCell>
        <mxCell id="36xcUVD_AX8S52_cwjdj-8" style="edgeStyle=orthogonalEdgeStyle;rounded=0;orthogonalLoop=1;jettySize=auto;html=1;strokeColor=#788AA3;fontColor=default;fillColor=#B2C9AB;endArrow=none;startFill=0;labelBackgroundColor=none;" edge="1" parent="1" source="36xcUVD_AX8S52_cwjdj-9" target="36xcUVD_AX8S52_cwjdj-3">
          <mxGeometry relative="1" as="geometry" />
        </mxCell>
        <mxCell id="36xcUVD_AX8S52_cwjdj-5" value="Cinema" style="rounded=1;arcSize=10;whiteSpace=wrap;html=1;align=center;strokeColor=#788AA3;fontColor=#46495D;fillColor=#B2C9AB;labelBackgroundColor=none;" vertex="1" parent="1">
          <mxGeometry x="-30" y="100" width="100" height="40" as="geometry" />
        </mxCell>
        <mxCell id="36xcUVD_AX8S52_cwjdj-22" style="edgeStyle=orthogonalEdgeStyle;shape=connector;rounded=0;orthogonalLoop=1;jettySize=auto;html=1;entryX=0;entryY=0.5;entryDx=0;entryDy=0;strokeColor=#788AA3;align=center;verticalAlign=middle;fontFamily=Helvetica;fontSize=11;fontColor=#46495D;labelBackgroundColor=default;startFill=0;endArrow=none;fillColor=#B2C9AB;" edge="1" parent="1" source="36xcUVD_AX8S52_cwjdj-24" target="36xcUVD_AX8S52_cwjdj-21">
          <mxGeometry relative="1" as="geometry" />
        </mxCell>
        <mxCell id="36xcUVD_AX8S52_cwjdj-6" value="Seating" style="rounded=1;arcSize=10;whiteSpace=wrap;html=1;align=center;strokeColor=#788AA3;fontColor=#46495D;fillColor=#B2C9AB;labelBackgroundColor=none;" vertex="1" parent="1">
          <mxGeometry x="280" y="240" width="100" height="40" as="geometry" />
        </mxCell>
        <mxCell id="36xcUVD_AX8S52_cwjdj-26" style="edgeStyle=orthogonalEdgeStyle;shape=connector;rounded=0;orthogonalLoop=1;jettySize=auto;html=1;exitX=0.5;exitY=0;exitDx=0;exitDy=0;entryX=0.5;entryY=1;entryDx=0;entryDy=0;strokeColor=#788AA3;align=center;verticalAlign=middle;fontFamily=Helvetica;fontSize=11;fontColor=#46495D;labelBackgroundColor=default;startFill=0;endArrow=none;fillColor=#B2C9AB;" edge="1" parent="1" source="36xcUVD_AX8S52_cwjdj-28" target="36xcUVD_AX8S52_cwjdj-25">
          <mxGeometry relative="1" as="geometry" />
        </mxCell>
        <mxCell id="36xcUVD_AX8S52_cwjdj-7" value="Films" style="rounded=1;arcSize=10;whiteSpace=wrap;html=1;align=center;strokeColor=#788AA3;fontColor=#46495D;fillColor=#B2C9AB;labelBackgroundColor=none;" vertex="1" parent="1">
          <mxGeometry x="640" y="100" width="100" height="40" as="geometry" />
        </mxCell>
        <mxCell id="36xcUVD_AX8S52_cwjdj-10" value="" style="edgeStyle=orthogonalEdgeStyle;rounded=0;orthogonalLoop=1;jettySize=auto;html=1;strokeColor=#788AA3;fontColor=default;fillColor=#B2C9AB;endArrow=none;startFill=0;labelBackgroundColor=none;" edge="1" parent="1" source="36xcUVD_AX8S52_cwjdj-5" target="36xcUVD_AX8S52_cwjdj-9">
          <mxGeometry relative="1" as="geometry">
            <mxPoint x="110" y="120" as="sourcePoint" />
            <mxPoint x="280" y="120" as="targetPoint" />
          </mxGeometry>
        </mxCell>
        <mxCell id="36xcUVD_AX8S52_cwjdj-9" value="contain" style="shape=rhombus;perimeter=rhombusPerimeter;whiteSpace=wrap;html=1;align=center;strokeColor=#788AA3;fontFamily=Helvetica;fontSize=11;fontColor=#46495D;labelBackgroundColor=none;fillColor=#B2C9AB;" vertex="1" parent="1">
          <mxGeometry x="120" y="90" width="120" height="60" as="geometry" />
        </mxCell>
        <mxCell id="36xcUVD_AX8S52_cwjdj-14" value="" style="edgeStyle=orthogonalEdgeStyle;shape=connector;rounded=0;orthogonalLoop=1;jettySize=auto;html=1;entryX=0;entryY=0.5;entryDx=0;entryDy=0;strokeColor=#788AA3;align=center;verticalAlign=middle;fontFamily=Helvetica;fontSize=11;fontColor=#46495D;labelBackgroundColor=default;startFill=0;endArrow=none;fillColor=#B2C9AB;" edge="1" parent="1" source="36xcUVD_AX8S52_cwjdj-3" target="36xcUVD_AX8S52_cwjdj-13">
          <mxGeometry relative="1" as="geometry">
            <mxPoint x="380" y="120" as="sourcePoint" />
            <mxPoint x="740" y="120" as="targetPoint" />
          </mxGeometry>
        </mxCell>
        <mxCell id="36xcUVD_AX8S52_cwjdj-13" value="shows" style="shape=rhombus;perimeter=rhombusPerimeter;whiteSpace=wrap;html=1;align=center;strokeColor=#788AA3;fontFamily=Helvetica;fontSize=11;fontColor=#46495D;labelBackgroundColor=default;fillColor=#B2C9AB;" vertex="1" parent="1">
          <mxGeometry x="480" y="90" width="120" height="60" as="geometry" />
        </mxCell>
        <mxCell id="36xcUVD_AX8S52_cwjdj-18" style="edgeStyle=orthogonalEdgeStyle;shape=connector;rounded=0;orthogonalLoop=1;jettySize=auto;html=1;entryX=0;entryY=0.5;entryDx=0;entryDy=0;strokeColor=#788AA3;align=center;verticalAlign=middle;fontFamily=Helvetica;fontSize=11;fontColor=#46495D;labelBackgroundColor=default;startFill=0;endArrow=none;fillColor=#B2C9AB;" edge="1" parent="1" source="36xcUVD_AX8S52_cwjdj-15" target="36xcUVD_AX8S52_cwjdj-17">
          <mxGeometry relative="1" as="geometry" />
        </mxCell>
        <mxCell id="36xcUVD_AX8S52_cwjdj-15" value="Row" style="rounded=1;arcSize=10;whiteSpace=wrap;html=1;align=center;strokeColor=#788AA3;fontFamily=Helvetica;fontSize=11;fontColor=#46495D;labelBackgroundColor=default;fillColor=#B2C9AB;" vertex="1" parent="1">
          <mxGeometry x="200" y="390" width="100" height="40" as="geometry" />
        </mxCell>
        <mxCell id="36xcUVD_AX8S52_cwjdj-19" style="edgeStyle=orthogonalEdgeStyle;shape=connector;rounded=0;orthogonalLoop=1;jettySize=auto;html=1;entryX=1;entryY=0.5;entryDx=0;entryDy=0;strokeColor=#788AA3;align=center;verticalAlign=middle;fontFamily=Helvetica;fontSize=11;fontColor=#46495D;labelBackgroundColor=default;startFill=0;endArrow=none;fillColor=#B2C9AB;" edge="1" parent="1" source="36xcUVD_AX8S52_cwjdj-16" target="36xcUVD_AX8S52_cwjdj-17">
          <mxGeometry relative="1" as="geometry" />
        </mxCell>
        <mxCell id="36xcUVD_AX8S52_cwjdj-16" value="Box" style="rounded=1;arcSize=10;whiteSpace=wrap;html=1;align=center;strokeColor=#788AA3;fontFamily=Helvetica;fontSize=11;fontColor=#46495D;labelBackgroundColor=default;fillColor=#B2C9AB;" vertex="1" parent="1">
          <mxGeometry x="350" y="390" width="100" height="40" as="geometry" />
        </mxCell>
        <mxCell id="36xcUVD_AX8S52_cwjdj-20" style="edgeStyle=orthogonalEdgeStyle;shape=connector;rounded=0;orthogonalLoop=1;jettySize=auto;html=1;exitX=0.5;exitY=0;exitDx=0;exitDy=0;entryX=0.5;entryY=1;entryDx=0;entryDy=0;strokeColor=#788AA3;align=center;verticalAlign=middle;fontFamily=Helvetica;fontSize=11;fontColor=#46495D;labelBackgroundColor=default;startFill=0;endArrow=none;fillColor=#B2C9AB;" edge="1" parent="1" source="36xcUVD_AX8S52_cwjdj-17" target="36xcUVD_AX8S52_cwjdj-6">
          <mxGeometry relative="1" as="geometry" />
        </mxCell>
        <mxCell id="36xcUVD_AX8S52_cwjdj-17" value="is_a" style="shape=hexagon;perimeter=hexagonPerimeter2;whiteSpace=wrap;html=1;fixedSize=1;strokeColor=#788AA3;fontFamily=Helvetica;fontSize=11;fontColor=#46495D;labelBackgroundColor=default;fillColor=#B2C9AB;" vertex="1" parent="1">
          <mxGeometry x="290" y="310" width="80" height="40" as="geometry" />
        </mxCell>
        <mxCell id="36xcUVD_AX8S52_cwjdj-21" value="Ticket" style="rounded=1;arcSize=10;whiteSpace=wrap;html=1;align=center;strokeColor=#788AA3;fontColor=#46495D;fillColor=#B2C9AB;labelBackgroundColor=none;" vertex="1" parent="1">
          <mxGeometry x="650" y="240" width="100" height="40" as="geometry" />
        </mxCell>
        <mxCell id="36xcUVD_AX8S52_cwjdj-23" value="" style="edgeStyle=orthogonalEdgeStyle;shape=connector;rounded=0;orthogonalLoop=1;jettySize=auto;html=1;entryX=0;entryY=0.5;entryDx=0;entryDy=0;strokeColor=#788AA3;align=center;verticalAlign=middle;fontFamily=Helvetica;fontSize=11;fontColor=#46495D;labelBackgroundColor=default;startFill=0;endArrow=none;fillColor=#B2C9AB;" edge="1" parent="1" source="36xcUVD_AX8S52_cwjdj-6" target="36xcUVD_AX8S52_cwjdj-24">
          <mxGeometry relative="1" as="geometry">
            <mxPoint x="280" y="260" as="sourcePoint" />
            <mxPoint x="100" y="260" as="targetPoint" />
          </mxGeometry>
        </mxCell>
        <mxCell id="36xcUVD_AX8S52_cwjdj-24" value="puchase" style="shape=rhombus;perimeter=rhombusPerimeter;whiteSpace=wrap;html=1;align=center;strokeColor=#788AA3;fontFamily=Helvetica;fontSize=11;fontColor=#46495D;labelBackgroundColor=default;fillColor=#B2C9AB;" vertex="1" parent="1">
          <mxGeometry x="470" y="230" width="120" height="60" as="geometry" />
        </mxCell>
        <mxCell id="36xcUVD_AX8S52_cwjdj-25" value="filmCrewandCast" style="rounded=1;arcSize=10;whiteSpace=wrap;html=1;align=center;strokeColor=#788AA3;fontFamily=Helvetica;fontSize=11;fontColor=#46495D;labelBackgroundColor=default;fillColor=#B2C9AB;" vertex="1" parent="1">
          <mxGeometry x="640" y="-70" width="100" height="40" as="geometry" />
        </mxCell>
        <mxCell id="36xcUVD_AX8S52_cwjdj-27" value="" style="edgeStyle=orthogonalEdgeStyle;shape=connector;rounded=0;orthogonalLoop=1;jettySize=auto;html=1;exitX=0.5;exitY=0;exitDx=0;exitDy=0;entryX=0.5;entryY=1;entryDx=0;entryDy=0;strokeColor=#788AA3;align=center;verticalAlign=middle;fontFamily=Helvetica;fontSize=11;fontColor=#46495D;labelBackgroundColor=default;startFill=0;endArrow=none;fillColor=#B2C9AB;" edge="1" parent="1" source="36xcUVD_AX8S52_cwjdj-7" target="36xcUVD_AX8S52_cwjdj-28">
          <mxGeometry relative="1" as="geometry">
            <mxPoint x="690" y="100" as="sourcePoint" />
            <mxPoint x="690" as="targetPoint" />
          </mxGeometry>
        </mxCell>
        <mxCell id="36xcUVD_AX8S52_cwjdj-28" value="part of&amp;nbsp;" style="shape=rhombus;perimeter=rhombusPerimeter;whiteSpace=wrap;html=1;align=center;strokeColor=#788AA3;fontFamily=Helvetica;fontSize=11;fontColor=#46495D;labelBackgroundColor=default;fillColor=#B2C9AB;" vertex="1" parent="1">
          <mxGeometry x="630" y="10" width="120" height="60" as="geometry" />
        </mxCell>
        <mxCell id="36xcUVD_AX8S52_cwjdj-30" style="edgeStyle=orthogonalEdgeStyle;shape=connector;rounded=0;orthogonalLoop=1;jettySize=auto;html=1;entryX=0.5;entryY=0;entryDx=0;entryDy=0;strokeColor=#788AA3;align=center;verticalAlign=middle;fontFamily=Helvetica;fontSize=11;fontColor=#46495D;labelBackgroundColor=default;startFill=0;endArrow=none;fillColor=#B2C9AB;" edge="1" parent="1" source="36xcUVD_AX8S52_cwjdj-29" target="36xcUVD_AX8S52_cwjdj-25">
          <mxGeometry relative="1" as="geometry" />
        </mxCell>
        <mxCell id="36xcUVD_AX8S52_cwjdj-29" value="is_a" style="shape=hexagon;perimeter=hexagonPerimeter2;whiteSpace=wrap;html=1;fixedSize=1;strokeColor=#788AA3;fontFamily=Helvetica;fontSize=11;fontColor=#46495D;labelBackgroundColor=default;fillColor=#B2C9AB;" vertex="1" parent="1">
          <mxGeometry x="650" y="-150" width="80" height="40" as="geometry" />
        </mxCell>
        <mxCell id="36xcUVD_AX8S52_cwjdj-32" style="edgeStyle=orthogonalEdgeStyle;shape=connector;rounded=0;orthogonalLoop=1;jettySize=auto;html=1;entryX=0;entryY=0.5;entryDx=0;entryDy=0;strokeColor=#788AA3;align=center;verticalAlign=middle;fontFamily=Helvetica;fontSize=11;fontColor=#46495D;labelBackgroundColor=default;startFill=0;endArrow=none;fillColor=#B2C9AB;" edge="1" parent="1" source="36xcUVD_AX8S52_cwjdj-31" target="36xcUVD_AX8S52_cwjdj-29">
          <mxGeometry relative="1" as="geometry" />
        </mxCell>
        <mxCell id="36xcUVD_AX8S52_cwjdj-31" value="actor" style="rounded=1;arcSize=10;whiteSpace=wrap;html=1;align=center;strokeColor=#788AA3;fontFamily=Helvetica;fontSize=11;fontColor=#46495D;labelBackgroundColor=default;fillColor=#B2C9AB;" vertex="1" parent="1">
          <mxGeometry x="550" y="-240" width="100" height="40" as="geometry" />
        </mxCell>
        <mxCell id="36xcUVD_AX8S52_cwjdj-35" style="edgeStyle=orthogonalEdgeStyle;shape=connector;rounded=0;orthogonalLoop=1;jettySize=auto;html=1;entryX=1;entryY=0.5;entryDx=0;entryDy=0;strokeColor=#788AA3;align=center;verticalAlign=middle;fontFamily=Helvetica;fontSize=11;fontColor=#46495D;labelBackgroundColor=default;startFill=0;endArrow=none;fillColor=#B2C9AB;" edge="1" parent="1" source="36xcUVD_AX8S52_cwjdj-34" target="36xcUVD_AX8S52_cwjdj-29">
          <mxGeometry relative="1" as="geometry" />
        </mxCell>
        <mxCell id="36xcUVD_AX8S52_cwjdj-34" value="director" style="rounded=1;arcSize=10;whiteSpace=wrap;html=1;align=center;strokeColor=#788AA3;fontFamily=Helvetica;fontSize=11;fontColor=#46495D;labelBackgroundColor=default;fillColor=#B2C9AB;" vertex="1" parent="1">
          <mxGeometry x="710" y="-230" width="100" height="40" as="geometry" />
        </mxCell>
      </root>
    </mxGraphModel>
  </diagram>
</mxfile>
